<?xml version="1.0" encoding="UTF-8"?>
<svg id="Keyboard-Double-Arrow-Down--Streamline-Outlined-Material" xmlns="http://www.w3.org/2000/svg" viewBox="0 0 17.41 19.25">
  <defs>
    <style>
      .cls-1 {
        fill: #db0000;
        stroke: #db0000;
        stroke-miterlimit: 10;
      }
    </style>
  </defs>
  <g id="keyboard-double-arrow-down">
    <path id="Vector" class="cls-1" d="M9.56,17.69c-.47.47-1.23.47-1.7,0L1.41,11.24c-.39-.39-.39-1.01,0-1.4h0c.39-.39,1.01-.39,1.4,0l5.9,5.9,5.9-5.9c.39-.39,1.01-.39,1.4,0h0c.39.39.39,1.01,0,1.4l-6.45,6.45ZM9.56,9.26c-.47.47-1.23.47-1.7,0L1.41,2.81c-.39-.39-.39-1.01,0-1.4h0c.39-.39,1.01-.39,1.4,0l5.9,5.9L14.61,1.41c.39-.39,1.01-.39,1.4,0h0c.39.39.39,1.01,0,1.4l-6.45,6.45Z"/>
  </g>
</svg>