<?xml version="1.0" encoding="UTF-8"?>
<svg id="Vrstva_1" data-name="Vrstva 1" xmlns="http://www.w3.org/2000/svg" viewBox="0 0 256 256">
  <defs>
    <style>
      .cls-1 {
        fill: #fff;
      }
    </style>
  </defs>
  <path class="cls-1" d="M128,32c-37.85,0-69.93,21.65-85.55,53.19-2.05,4.14-.13,9.16,4.15,10.9h0c3.83,1.56,8.25-.05,10.09-3.75,13.05-26.31,39.6-44.35,71.31-44.35,25.94,0,49.06,12.72,63.5,32h-23.5c-4.42,0-8,3.58-8,8h0c0,4.42,3.58,8,8,8h37.95c5.55,0,10.05-4.5,10.05-10.05v-37.95c0-4.42-3.58-8-8-8h0c-4.42,0-8,3.58-8,8v16.75c-17.53-20.09-43.44-32.75-72-32.75h0Z"/>
  <path class="cls-1" d="M209.4,159.91c-3.83-1.56-8.25.05-10.09,3.75-13.05,26.31-39.6,44.35-71.31,44.35-26.22,0-49.25-12.91-63.75-32h23.75c4.42,0,8-3.58,8-8h0c0-4.42-3.58-8-8-8h-37.95c-5.55,0-10.05,4.5-10.05,10.05v37.95c0,4.42,3.58,8,8,8h0c4.42,0,8-3.58,8-8v-16.75c17.5,19.84,43.16,32.75,72,32.75,37.85,0,69.93-21.65,85.55-53.19,2.05-4.14.13-9.16-4.15-10.9h0Z"/>
</svg>